<svg width="300" height="300" viewBox="0 0 300 300" fill="none" xmlns="http://www.w3.org/2000/svg">
<mask id="mask0" mask-type="alpha" maskUnits="userSpaceOnUse" x="0" y="0" width="300" height="300">
<rect width="300" height="300" fill="#C4C4C4"/>
</mask>
<g mask="url(#mask0)">
<path d="M256.123 134.782C265.938 196.42 219.916 239.261 165.443 243.777C110.971 248.294 63.1932 206.781 58.7729 151.121C54.3527 95.4612 94.9798 46.6425 149.453 42.126C203.925 37.6094 251.703 79.0555 256.123 134.782" fill="#CC8C1D"/>
<path d="M237.263 87.1437C266.889 139.595 250.539 204.93 200.769 233.052C151 261.174 86.6458 241.358 57.0194 188.907C27.393 136.456 43.7431 71.1206 93.5128 42.9985C143.283 14.8763 207.637 34.6926 237.263 87.1437" fill="#FDCB00"/>
<path d="M228.794 130.055C237.301 183.609 197.415 220.832 150.205 224.756C102.996 228.68 61.5885 192.612 57.7576 144.252C53.9268 95.8913 89.1369 53.475 136.347 49.5508C183.556 45.6266 224.963 81.6371 228.794 130.055Z" fill="#CC8C1D"/>
<path d="M229.6 132.535C233.152 176.746 200.23 215.438 156.079 219.054C111.866 222.606 73.1712 189.685 69.5554 145.538C66.0031 101.327 98.9254 62.6342 143.076 59.0187C187.289 55.4031 226.047 88.3236 229.6 132.535" fill="#FDCB00"/>
<path opacity="0.3" d="M229.6 132.535C233.152 176.746 200.23 215.439 156.079 219.055C111.866 222.607 73.1712 189.686 69.5554 145.539C66.0031 101.328 98.9254 62.635 143.076 59.0194C187.289 55.4039 226.047 88.3243 229.6 132.535" fill="#CC8C1D"/>
<path fill-rule="evenodd" clip-rule="evenodd" d="M273.233 88.0591V87.9283V87.8629V87.7975V87.7321V87.6667V87.6012V87.5359V87.4704V87.405V87.3396V87.2742V87.1434V87.078V87.0126V86.9472V86.8818V86.8164V86.751V86.6202V86.5548V86.4894V86.424V86.3586V86.2932V86.2278V86.1624V86.097V86.0316V85.9662V85.9008V85.8354V85.77V85.7046V85.6392V85.5738V85.5084V85.443V85.3776V85.3122V85.2468V85.1814V85.116V85.0506V84.9852V84.9198V84.8544V84.789V84.7236V84.6582V84.5928V84.5274V84.462V84.3966V84.3312V84.2658V84.2004V84.135V84.0696V84.0042V83.9388V83.8734V83.808V83.7426V83.6772V83.6118V83.5464V83.481V83.4156V83.3502V83.2848V83.2194V83.154V83.0886V83.0232V82.9578V82.8924V82.827V82.7616V82.6962V82.6308V82.5654V82.5V82.4346V82.3692V82.3038V82.2384V82.173V82.1076V82.0422V81.9768V81.9114V81.846V81.7806V81.7152V81.6498V81.5844V81.519V81.4536V81.3882V81.3228V81.2574V81.192V81.1266V81.0612V80.9958V80.9304V80.865V80.7996V80.7342V80.6688V80.6034V80.538V80.4726V80.4072V80.3418V80.2764V80.211V80.1456V80.0802V80.0148V79.9494V79.884V79.8186V79.7532V79.6878V79.6224V79.557V79.4916V79.4262V79.3608V79.2954V79.23V79.1646V79.0992V79.0338V78.9684V78.903V78.8376V78.7722V78.7068V78.6414V78.576V78.5106V78.4452V78.3798V78.3144V78.249V78.1836V78.1182V78.0528V77.9874V77.922V77.8566V77.7912V77.7258V77.6604V77.595V77.5296V77.4642V77.3988V77.3334V77.268V77.2026V77.1372V77.0718V77.0064V76.941V76.8756V76.8102V76.7448V76.6794V76.614V76.5486V76.4832C273.233 75.5678 273.167 74.6524 273.102 73.737L273.102 73.7364C271.663 56.3399 260.61 47.3146 246.418 48.4918C233.142 49.5382 222.547 56.7323 222.613 74.1288V74.1942V74.2596V74.325V74.3904V74.4558V74.5212V74.5866V74.652V74.7174V74.7828V74.8482V74.9136V74.979V75.0444V75.1098V75.1752V75.2406V75.306V75.3714V75.4368V75.5022V75.5676V75.633V75.6984V75.7638V75.8292V75.8946V75.96V76.0254V76.0908V76.1562V76.2216V76.287V76.3524V76.4178V76.4832V76.5486V76.614V76.6794V76.7448V76.8102V76.8756V76.941V77.0064V77.0718V77.1372V77.2026V77.268V77.3334V77.3988V77.4642V77.5296V77.595V77.6604V77.7258V77.7912V77.8566V77.922V77.9874V78.0528V78.1182V78.1836V78.249V78.3144V78.3798V78.4452V78.5106V78.576V78.6414V78.7068V78.7722V78.8376V78.903V78.9684V79.0338V79.0992V79.1646V79.23V79.2954V79.3608V79.4262V79.4916V79.557V79.6224V79.6878V79.7532V79.8186V79.884V79.9494V80.0148V80.0802V80.1456V80.211V80.2764V80.3418V80.4072V80.4726V80.538V80.6034V80.6688V80.7342V80.7996V80.865V80.9304V80.9958V81.0612V81.1266V81.192V81.2574V81.3228V81.3882V81.4536V81.519V81.5844V81.6498V81.7152V81.7806V81.846V81.9114V81.9768V82.0422V82.1076V82.173V82.2384V82.3038V82.3692V82.4346V82.5V82.5654V82.6308V82.6962V82.7616V82.827V82.8924V82.9578V83.0232V83.0886V83.154V83.2194V83.2848V83.3502V83.4156V83.481V83.5464V83.6118V83.6772V83.7426V83.808V83.8734V83.9388V84.0042V84.0696V84.135V84.2004V84.2658V84.3312V84.3966V84.462V84.5274V84.5928V84.6582V84.7236V84.789V84.8544V84.9198V84.9852V85.0506V85.116V85.1814V85.2468V85.3122V85.3776V85.443V85.5084V85.5738V85.6392V85.7046V85.77V85.9008C222.613 87.019 222.672 88.1372 222.734 89.3115L222.744 89.4979C224.379 109.445 235.824 116.835 250.931 115.658C266.889 114.35 273.363 101.662 273.167 88.2553V88.1899V88.1245L273.233 88.0591ZM247.4 74.325C252.501 73.9326 255.51 77.6604 256.752 83.2195C255.51 87.0781 252.698 88.7131 249.558 88.9747C245.504 89.3017 240.729 87.0127 239.029 80.8651C240.206 77.1372 242.757 74.652 247.4 74.325ZM159.436 77.5298V77.5952V77.6606V77.726V77.7914V77.8568V77.9222V77.9876V78.053V78.1184V78.1838V78.2492C159.436 78.5762 159.436 78.7724 159.37 78.7724C159.224 78.8091 158.458 78.9489 157.572 79.1107L157.572 79.1109L157.571 79.1109C156.879 79.2373 156.114 79.3771 155.512 79.4918C156.754 91.2639 158.52 108.268 158.52 110.361V110.426V110.492V110.557V110.622V110.688V110.753V110.819V110.884V110.949V111.015V111.08V111.146V111.211V111.276V111.342V111.407V111.473V111.538V111.603V111.669V111.734V111.8V111.865V111.93V111.996V112.061V112.127V112.192V112.257V112.323V112.388V112.454V112.519V112.584V112.65V112.715V112.781V112.846V112.911V112.977V113.042V113.108V113.173V113.238V113.304V113.369V113.435V113.5V113.565V113.631V113.696V113.762V113.827V113.892V113.958V114.023V114.089V114.154V114.219V114.285V114.35V114.416V114.481V114.546V114.612V114.677V114.743V114.808V114.873V114.939V115.004V115.07V115.135V115.2V115.266V115.331V115.397V115.462V115.527V115.593V115.658V115.724V115.789V115.854V115.92V115.985V116.051V116.116V116.181V116.247V116.312V116.378V116.443V116.508V116.574V116.639V116.705V116.77V116.835V116.901V116.966V117.032V117.097V117.162V117.228V117.293V117.359V117.424V117.489V117.555V117.62V117.686V117.751V117.816V117.882V117.947V118.013V118.078V118.143V118.209V118.274V118.34V118.405V118.47V118.536V118.601V118.667V118.732V118.797V118.863V118.928V118.994V119.059V119.124V119.19V119.255V119.321V119.386V119.451V119.517V119.582V119.648V119.713V119.778V119.844V119.909V119.975V120.04V120.105V120.171V120.236V120.302V120.367V120.432V120.498V120.563V120.629V120.694V120.759V120.825V120.89V120.956V121.021V121.086V121.152V121.217V121.283V121.348V121.544V121.61V121.675V121.74V121.806V121.871V121.937V122.002V122.067V122.133V122.198V122.46C158.417 122.46 157.582 122.583 156.401 122.756L156.401 122.756C153.102 123.241 147.103 124.122 146.814 123.833C146.617 123.637 141.647 116.705 137.004 110.099C137.069 110.492 137.069 110.819 137.069 111.08V111.146V111.211V111.276V111.342V111.407V111.473V111.538V111.603V111.669V111.734V111.8V111.865V111.93V111.996V112.061V112.127V112.192V112.257V112.323V112.388V112.454V112.519V112.584V112.65V112.715V112.781V112.846V112.911V112.977V113.042V113.108V113.173V113.238V113.304V113.369V113.435V113.5V113.565V113.631V113.696V113.762V113.827V113.892V113.958V114.023V114.089V114.154V114.219V114.285V114.35V114.416V114.481V114.546V114.612V114.677V114.743V114.808V114.873V114.939V115.004V115.07V115.135V115.2V115.266V115.331V115.397V115.462V115.527V115.593V115.658V115.724V115.789V115.854V115.92V115.985V116.051V116.116V116.181V116.247V116.312V116.378V116.443V116.508V116.574V116.639V116.705V116.77V116.835V116.901V116.966V117.032V117.097V117.162V117.228V117.293V117.359V117.424V117.489V117.555V117.62V117.686V117.751V117.816V117.882V117.947V118.013V118.078V118.143V118.209V118.274V118.34V118.405V118.47V118.536V118.601V118.667V118.732V118.797V118.863V118.928V118.994V119.059V119.124V119.19V119.255V119.321V119.386V119.451V119.517V119.582V119.648V119.713V119.778V119.844V119.909V119.975V120.04V120.105V120.171V120.236V120.302V120.367V120.432V120.498V120.563V120.629V120.694V120.759V120.825V120.89V120.956V121.021V121.086V121.152V121.217V121.283V121.348V121.413V121.479V121.544V121.61V121.675V121.74V121.806V121.871V121.937V122.002V122.067V122.133V122.198V122.264V122.329V122.394V122.46V122.525V122.591V122.656V122.721V122.787V122.852C137.069 123.179 137.069 123.31 137.004 123.375C136.546 123.702 113.329 126.58 113.525 126.188V126.122V126.057V125.991V125.926V125.861V125.795C113.458 124.926 113.1 122.824 112.767 120.865L112.767 120.865L112.767 120.864L112.767 120.864L112.766 120.864C112.448 118.993 112.151 117.251 112.151 116.835V116.77V116.705V116.639V116.574V116.508V116.443V116.378V116.312V116.247V116.181V116.116V116.051V115.985V115.92V115.854V115.789V115.724V115.658V115.593V115.527V115.462V115.397V115.331V115.266V115.2V115.135V115.07V115.004V114.939V114.873V114.808V114.743V114.677V114.612V114.546V114.481V114.416V114.35V114.285V114.219V114.154V114.089V114.023V113.958V113.892V113.827V113.762V113.696V113.631V113.565V113.5V113.435V113.369V113.304V113.238V113.173V113.108V113.042V112.977V112.911V112.846V112.781V112.715V112.65V112.584V112.519V112.454V112.388V112.323V112.257V112.192V112.127V112.061V111.996V111.93V111.865V111.8V111.734V111.669V111.603V111.538V111.473V111.407V111.342V111.276V111.211V111.146V111.08V111.015V110.949V110.884V110.819V110.753V110.688V110.622V110.557V110.492V110.426V110.361V110.295V110.23V110.165V110.099V110.034V109.968V109.903V109.838V109.772V109.707V109.641V109.576V109.511V109.445V109.38V109.314V109.249V109.184V109.118V109.053V108.987V108.922V108.857V108.791V108.726V108.66V108.595V108.53V108.464V108.399V108.333V108.268V108.203V108.137V108.072V108.006V107.941V107.876V107.81V107.745V107.679V107.614V107.549V107.483V107.418V107.352V107.287V107.222V107.156V107.091V107.025V106.96V106.895V106.829V106.764V106.698V106.633V106.568V106.502V106.437V106.371V106.306V106.241V106.175V106.11V106.044V105.979V105.914V105.848V105.783V105.717V105.652V105.587V105.521V105.456V105.39V105.325V105.26V105.194V105.129V105.063V104.933C112.242 104.842 113.482 104.566 114.694 104.295C115.24 104.174 115.78 104.053 116.206 103.952C115.618 97.7385 114.833 90.4137 114.31 86.0972C113.198 86.3588 109.601 86.555 109.47 86.4242C109.339 86.2934 107.573 74.9792 107.573 73.475V73.4096V73.3442V73.2788V73.2134V73.148V73.0826V73.0172V72.9518V72.8864V72.821V72.7556V72.6902V72.6248V72.5594V72.494V72.4286V72.3632V72.2978V72.2324V72.167V72.1016V72.0362V71.9708V71.9054V71.84V71.7746V71.7092V71.6438V71.5784V71.513V71.4476V71.3822V71.3168V71.2514V71.186V71.1206V71.0552V70.9898V70.9244V70.859V70.7936V70.7282V70.6628V70.5974V70.532V70.4666V70.4011V70.3358V70.2703V70.205V70.1395V70.0741V70.0087V69.9433V69.8779V69.8125V69.7471V69.6817V69.6163V69.5509V69.4855V69.4201V69.3547V69.2893V69.2239V69.1585V69.0931V69.0277V68.9623V68.8969V68.8315V68.7661V68.7007V68.6353V68.5699V68.5045V68.4391V68.3737V68.3083V68.2429V68.1775V68.1121V68.0467V67.9813V67.9159V67.8505V67.7851V67.7197V67.6543V67.5889V67.5235V67.4581V67.3927V67.3273V67.2619V67.1965V67.1311V67.0657V67.0003V66.9349V66.8695V66.8041V66.7387V66.6733V66.6079V66.5425V66.4771V66.4117V66.3463V66.2809V66.2155V66.1501V66.0847V66.0193V65.9539V65.8885V65.8231V65.7577V65.6923V65.6269V65.5615V65.4961V65.4307V65.3653V65.2999V65.2345V65.1691V65.1037V65.0383V64.9729V64.9075V64.8421V64.7767V64.7113V64.6459V64.5805V64.5151V64.4497V64.3843V64.3189V64.2535V64.1881V64.1227V64.0573V63.9919V63.9265V63.8611V63.7957V63.7303V63.6649V63.5995V63.5341V63.4687V63.4033V63.3379V63.2725V63.2071V63.1417V63.0763V63.0109V62.9455V62.8801V62.8147V62.7493V62.6839V62.6185V62.5531V62.4877V62.4223V62.3569V62.2915V62.2261V62.1607V62.0953V62.0299V61.9645V61.8991V61.8337V61.7683V61.7029V61.4413C107.835 61.1797 122.942 60.2641 123.139 60.2641C123.245 60.2641 127.126 64.9831 131.516 70.3211L131.516 70.3215C132.547 71.5742 133.605 72.861 134.649 74.129C134.453 72.821 134.322 71.7746 134.322 71.186V71.0552V70.9898V70.9244V70.859V70.7936V70.7282V70.6628V70.5974V70.532V70.4666V70.4011V70.3358V70.2703V70.205V70.1395V70.0741V70.0087V69.9433V69.8779V69.8125V69.7471V69.6817V69.6163V69.5509V69.4855V69.4201V69.3547V69.2893V69.2239V69.1585V69.0277V68.9623V68.8315V68.7661V68.7007V68.6353V68.5045V68.4391V68.3083V68.2429V68.1775V68.1121V68.0467V67.9813V67.9159V67.8505V67.7851V67.7197V67.5889V67.5235V67.3927V67.3273V67.2619V67.1965V67.1311V67.0657V67.0003V66.8695V66.8041V66.6733V66.6079V66.5425V66.4771V66.4117V66.3463V66.2809V66.2155V66.1501V66.0847V65.9539V65.8885V65.7577V65.6923V65.6269V65.5615V65.4961V65.4307V65.3653V65.2999V65.2345V65.1691V65.1037V65.0383V64.9729V64.9075V64.8421V64.7767V64.7113V64.6459V64.5805V64.5151V64.4497V64.3843V64.3189V64.2535V64.1881V64.1227V64.0573V63.9919V63.9265V63.8611V63.7957V63.7303V63.6649V63.5995V63.5341V63.4687V63.4033V63.3379V63.2725V63.2071V63.1417V63.0763V63.0109V62.9455V62.8801V62.8147V62.7493V62.6839V62.6185V62.5531V62.4877V62.4223V62.3569V62.2915V62.2261V62.1607V62.0953V62.0299V61.9645V61.8991V61.8337V61.7683V61.7029V61.6375V61.5721V61.5067V61.4413V61.3759V61.3105V61.2451V61.1797V61.1143V61.0489V60.9835V60.9181V60.8527V60.7873V60.7219V60.6565V60.5911V60.5257V60.4603V60.3949V60.3295V60.2641V60.1987V60.1333V60.0679V60.0025V59.9371V59.8717V59.8063V59.7409V59.6755V59.6101V59.5447V59.4793V59.4139C134.322 59.0869 134.322 58.8907 134.388 58.8907C134.911 58.6945 158.389 56.6017 158.389 56.7979C158.389 56.8416 158.445 57.2582 158.53 57.9004C158.826 60.1424 159.487 65.1336 159.436 66.6079V66.6733V66.7387V66.8041V66.8695V66.9349V67.0003V67.0657V67.1311V67.1965V67.2619V67.3273V67.3927V67.4581V67.5235V67.5889V67.6543V67.7197V67.7851V67.8505V67.9159V67.9813V68.0467V68.1121V68.1775V68.2429V68.3083V68.3737V68.4391V68.5045V68.5699V68.6353V68.7007V68.7661V68.8315V68.8969V68.9623V69.0277V69.0931V69.1585V69.2239V69.2893V69.3547V69.4201V69.4855V69.5509V69.6163V69.6817V69.7471V69.8125V69.8779V69.9433V70.0087V70.0741V70.1395V70.205V70.2703V70.3358V70.4011V70.4666V70.532V70.5974V70.6628V70.7282V70.7936V70.859V70.9244V70.9898V71.0552V71.1206V71.186V71.2514V71.3168V71.3822V71.4476V71.513V71.5784V71.6438V71.7092V71.7746V71.84V71.9054V71.9708V72.0362V72.1016V72.167V72.2324V72.2978V72.3632V72.4286V72.494V72.5594V72.6248V72.6902V72.7556V72.821V72.8864V72.9518V73.0172V73.0826V73.148V73.2134V73.2788V73.3442V73.4096V73.475V73.5404V73.6058V73.6712V73.7366V73.802V73.8674V73.9328V73.9982V74.0636V74.129V74.1944V74.2598V74.3252V74.3906V74.456V74.5214V74.5868V74.6522V74.7176V74.783V74.8484V74.9138V74.9792V75.0446V75.11V75.1754V75.2408V75.3062V75.3716V75.437V75.5024V75.5678V75.6332V75.6986V75.764V75.8294V75.8948V75.9602V76.0256V76.091V76.1564V76.2218V76.2872V76.3526V76.418V76.4834V76.5488V76.6142V76.6796V76.745V76.8104V76.8758V76.9412V77.0066V77.072V77.1374V77.2028V77.2682V77.3336V77.399V77.4644V77.5298ZM129.874 100.027C130.087 100.31 130.299 100.613 130.532 100.945L130.533 100.945C130.73 101.226 130.942 101.529 131.182 101.858C131.063 101.844 130.954 101.832 130.855 101.822C130.52 101.786 130.302 101.763 130.201 101.662C130.136 101.531 130.005 100.943 129.874 100.027ZM142.497 83.5462C142.301 82.042 142.17 80.9956 142.17 80.9956H140.405C141.189 82.042 141.909 82.8922 142.497 83.5462ZM107.377 123.637V123.506V123.441V123.376V123.31V123.245V123.179V123.114V123.049V122.983V122.918V122.852V122.787V122.722V122.656V122.591V122.525V122.46V122.395V122.329V122.264V122.198V122.133V122.068V122.002V121.937V121.871V121.806V121.741V121.675V121.61V121.544V121.479V121.414V121.348V121.283V121.217V121.152V121.087V121.021V120.956V120.89V120.825V120.76V120.694V120.629V120.563V120.498V120.433V120.367V120.302V120.236V120.171V120.106V120.04V119.975V119.909V119.844V119.779V119.713V119.648V119.582V119.517V119.452V119.386V119.321V119.255V119.19V119.125V119.059V118.994V118.928V118.863V118.798V118.732V118.667V118.601V118.536V118.471V118.405V118.34V118.274V118.209V118.144V118.078V118.013V117.947V117.882V117.817V117.751V117.686V117.62V117.555V117.49V117.424V117.359V117.293V117.228V117.163V117.097V117.032V116.966V116.901V116.836V116.77V116.705V116.639V116.574V116.509V116.443V116.378V116.312V116.247V116.182V116.116V116.051V115.985V115.92V115.855V115.789V115.724V115.658V115.593V115.528V115.462V115.397V115.331V115.266V115.201V115.135V115.07V115.004V114.939V114.874V114.808V114.743V114.677V114.612V114.547V114.481V114.416V114.35V114.285V114.22V114.154V114.089V114.023V113.958V113.893V113.827V113.762V113.696V113.631V113.566V113.5C107.377 111.604 106.396 104.344 106.331 103.886C106.277 103.458 102.149 103.731 100.437 103.844L100.437 103.844C100.057 103.869 99.7965 103.886 99.7253 103.886L97.5671 84.8548L102.93 83.3506V83.2852V83.2198V83.1544V83.089V83.0236V82.9582V82.8928V82.8274V82.762V82.6966V82.6312V82.5658V82.5004V82.435V82.3696V82.3042V82.2388V82.1734V82.108V82.0426V81.9772V81.9118V81.8464V81.781V81.7156V81.6502V81.5848V81.5194V81.454V81.3886V81.3232V81.2578V81.1924V81.127V81.0616V80.9962V80.9308V80.8654V80.8V80.7346V80.6692V80.6038V80.5384V80.473V80.4076V80.3422V80.2768V80.2114V80.146V80.0806V80.0152V79.9498V79.8844V79.819V79.7536V79.6882V79.6228V79.5574V79.492V79.4266V79.3612V79.2958V79.2304V79.165V79.0996V79.0342V78.9688V78.9034V78.838V78.7726V78.7072V78.6418V78.5764V78.511V78.4456V78.3802V78.3148V78.2494V78.184V78.1186V78.0532V77.9878V77.9224V77.857V77.7916V77.7262V77.6608V77.5954V77.53V77.4646V77.3992V77.3338V77.2684V77.203V77.1376V77.0722V77.0068V76.9414V76.876V76.8106V76.7452V76.6798V76.6144V76.549V76.4836V76.4182V76.3528V76.2874V76.222V76.1566V76.0912V76.0258V75.9604V75.895V75.8296V75.7642V75.6988V75.6334V75.568V75.5026V75.4372V75.3718V75.3064V75.241V75.1756V75.1102V75.0448V74.9794V74.9139V74.8486V74.7831V74.7177V74.6523V74.5869V74.5215V74.4561V74.3907V74.3253V74.2599V74.1945V74.1291V74.0637V73.9983V73.9329V73.8675V73.8021V73.7367V73.6713V73.6059V73.5405V73.4751V73.4097V73.3443V73.2789V73.2135V73.1481V73.0827V73.0173V72.9519V72.8865V72.8211V72.7557V72.6903V72.6249V72.5595V72.4941V72.4287V72.3633V72.2979V72.2325V72.1671V72.1017V72.0363V71.9709V71.9055V71.8401V71.7747V71.7093V71.6439V71.5785V71.5131L101.557 60.8529L76.8352 63.2073V63.2727V63.3381V63.4035V63.4689V63.5343V63.5997V63.6651V63.7305V63.7959V63.8613V63.9267V63.9921V64.0575V64.1229V64.1883V64.2537V64.3191V64.3845V64.4499V64.5153V64.5807V64.6461V64.7115V64.7769V64.8423V64.9077V64.9731V65.0385V65.1039V65.1693V65.2347V65.3001V65.3655V65.4309V65.4963V65.5617V65.6271V65.6925V65.7579V65.8233V65.8887V65.9541V66.0195V66.0849V66.1503V66.2157V66.2811V66.3465V66.4119V66.4773V66.5427V66.6081V66.6735V66.7389V66.8043V66.8697V66.9351V67.0005V67.0659V67.1313V67.1967V67.2621V67.3275V67.3929V67.4583V67.5237V67.5891V67.6545V67.7199V67.7853V67.8507V67.9161V67.9815V68.0469V68.1123V68.1777V68.2431V68.3085V68.3739V68.4393V68.5047V68.5701V68.6355V68.7009V68.7663V68.8317V68.8971V68.9625V69.0279V69.0933V69.1587V69.2241V69.2895V69.3549V69.4203V69.4857V69.5511V69.6165V69.6819V69.7473V69.8127V69.8781V69.9435V70.0089V70.0743V70.1397V70.2051V70.2705V70.3359V70.4013V70.4667V70.5321V70.5975V70.6629V70.7283V70.7937V70.8591V70.9245V70.9899V71.0553V71.1207V71.1861V71.2515V71.3169V71.3823V71.4477V71.5131V71.5785V71.6439V71.7093V71.7747V71.8401V71.9055V71.9709V72.0363V72.1017V72.1671V72.2325V72.2979V72.3633V72.4287V72.4941V72.5595V72.6249V72.6903V72.7557V72.8211V72.8865V72.9519V73.0173V73.0827V73.1481V73.2135V73.2789V73.3443V73.4097V73.4751V73.5405V73.6059V73.6713V73.7367V73.8021V73.8675V73.9329V73.9983V74.0637V74.1291V74.1945V74.2599V74.3253V74.3907V74.4561V74.5215V74.5869V74.6523V74.7177V74.7831V74.8486V74.9139V74.9794V75.0448C76.8352 75.0448 77.0314 85.705 77.4238 86.032C77.8162 86.359 82.198 85.9012 82.198 85.9012L84.4216 105.456C82.852 105.587 80.563 105.783 80.3668 106.045C80.3014 106.11 80.236 106.699 80.236 107.549V107.614V107.68V107.745V107.81V107.876V107.941V108.007V108.072V108.137V108.203V108.268V108.334V108.399V108.464V108.53V108.595V108.661V108.726V108.791V108.857V108.922V108.988V109.053V109.118V109.184V109.249V109.315V109.38V109.445V109.511V109.576V109.642V109.707V109.772V109.838V109.903V109.969V110.034V110.099V110.165V110.23V110.296V110.361V110.426V110.492V110.557V110.623V110.688V110.753V110.819V110.884V110.95V111.015V111.08V111.146V111.211V111.277V111.342V111.407V111.473V111.538V111.604V111.669V111.734V111.8V111.865V111.931V111.996V112.061V112.127V112.192V112.258V112.323V112.388V112.454V112.519V112.585V112.65V112.715V112.781V112.846V112.912V112.977V113.042V113.108V113.173V113.239V113.304V113.369V113.435V113.5V113.566V113.631V113.696V113.762V113.827V113.893V113.958V114.023V114.089V114.154V114.22V114.285V114.35V114.416V114.481V114.547V114.612V114.677V114.743V114.808V114.874V114.939V115.004V115.07V115.135V115.201V115.266V115.331V115.397V115.462V115.528V115.593V115.658V115.724V115.789V115.855V115.92V115.985V116.051V116.116V116.182V116.247V116.312V116.378V116.443V116.574V116.639V116.77V116.836V116.901V116.966V117.032V117.097V117.163V117.228V117.293V117.359V117.424V117.49V117.555V117.62V117.686V117.751V117.817V117.882V117.947V118.013V118.209V118.34V118.405V118.471V118.536V118.601V118.667V118.732V118.798V118.863V118.928V118.994V119.059V119.125V119.19V119.255V119.321C80.236 121.806 80.563 126.646 81.2824 127.496C82.198 128.608 106.919 125.926 107.312 125.795C107.377 125.795 107.377 125.599 107.377 125.272V125.207V125.141V125.076V125.011V124.945V124.88V124.814V124.749V124.684V124.618V124.553V124.487V124.422V124.357V124.291V124.226V124.16V124.095V124.03V123.964V123.899V123.833V123.768V123.703V123.637ZM74.4807 115.135V115.266V115.397V115.462V115.528V115.593V115.658V115.724V115.789V115.855V115.92V115.985V116.051V116.116V116.182V116.247V116.312V116.378V116.443V116.509V116.574V116.639V116.705V116.77V116.836V116.901V116.966V117.032V117.097V117.163V117.228V117.293V117.359V117.424V117.49V117.555V117.62V117.686C74.2845 128.019 65.7824 130.831 53.4218 131.812C46.5547 132.401 37.6603 132.532 31.3164 132.466C30.7932 129.85 30.4662 125.011 30.4662 122.329V121.937V121.806V121.741V121.675V121.61V121.479V121.414V121.348V121.283V120.956V120.89V120.825V120.76V120.563V120.433V120.367V120.302V120.236V120.04V119.909V119.844V119.779V119.713V119.517V119.386V119.321V119.255V119.19V118.994V118.863V118.798V118.732V118.667V118.601V118.536V118.471V118.274V118.209V118.144V118.078V118.013V117.947V117.686V117.62V117.555V117.49V117.424V117.359V117.163V117.097V117.032V116.966V116.901V116.836V116.77V116.574V116.509V116.443V116.378V116.312V116.247V116.182V116.116V116.051V115.985V115.855V115.789V115.724V115.593V115.528V115.397V115.331V115.266V115.135V115.07V115.004V114.808V114.743V114.677V114.547V114.481V114.285V114.22V114.154V113.958V113.893V113.696V113.631V113.566V113.435V113.369V113.239V113.173V113.108V113.042V112.977V112.912V112.781V112.65V112.585V112.519V112.454V112.388V112.258V112.061V111.996V111.931V111.865V111.8V111.734V111.669V111.538V111.473V111.407V111.342V111.277V111.211V111.08V111.015V110.95V110.884V110.819V110.753V110.688V110.623V110.557V110.492V110.426V110.361V110.296C30.4662 109.38 30.5316 108.726 30.597 108.595C30.924 108.072 34.5864 107.941 35.6983 107.941C35.4367 100.028 35.0442 91.0678 34.6518 90.937C34.0632 90.61 28.1118 91.3948 28.1118 91.3948C27.1308 89.2366 27 83.743 27 81.1924V81.127V80.9962V80.6038V80.473V80.3422V80.2768V80.2114V80.0806V80.0152V79.8843V79.819V79.3611V79.2957V79.2303V79.1649V79.0341V78.9687V78.8379V78.7725V78.7071V78.4455V78.0531V77.9877V77.9223V77.8569V77.7915V77.7261V77.6607V77.5953V77.5299V77.4645V77.3991V77.3337V77.2683V77.2029V77.1375V77.0721V77.0067V76.9413V76.8759V76.8105V76.7451V76.6797V76.6143V76.5489V76.4835V76.4181V76.3527V76.2873V76.2219V76.1565V76.0911V76.0257V75.9603V75.8949V75.8295V75.7641V75.6987V75.6333V75.5679V75.5025V75.4371V75.3717V75.3063V75.2409V75.1755V75.1101V75.0447V74.9793V74.9139V74.8485V74.7831V74.7177V74.6523V74.5869V74.5215V74.4561V74.3907V74.3253V74.2599V74.1945V74.1291V74.0637V73.9983V73.9329V73.8675V73.8021V73.7367V73.6713V73.6059V73.5405V73.4751V73.4097V73.3443V73.2789V73.2135V73.1481V73.0827V73.0173V72.9519V72.8865V72.8211V72.7557V72.6903V72.6249V72.5595V72.4941V72.4287V72.3633V72.2979V72.2325V72.1671V72.1017V72.0363V71.9709V71.9055V71.8401V71.7747V71.7093V71.6439V71.5785V71.5131V71.4477V71.3823V71.3169V71.2515V71.1861V71.1207V71.0553V70.9899V70.9245V70.8591V70.7937V70.7283V70.6629V70.5975V70.5321V70.4667V70.4013V70.3359V70.2705V70.2051V70.1397V70.0743V70.0089V69.9435V69.8781V69.8127V69.7473V69.6819V69.6165V69.5511V69.4857V69.4203V69.3549V67.9161C27 67.9161 40.4725 66.0849 48.6475 65.4309C53.0948 65.0385 69.0525 64.7769 70.0989 77.9223C70.1643 78.2493 70.1643 78.5109 70.1643 78.8379V78.9033V78.9687V79.0341V79.0995V79.1649V79.2303V79.2957V79.3611V79.4265V79.4919V79.5573V79.6227V79.6882V79.7535V79.819V79.8843V79.9498V80.0152V80.0806V80.146V80.2114V80.2768V80.3422V80.4076V80.473V80.5384V80.6038V80.6692V80.7346V80.8V80.8654V80.9308V80.9962V81.0616V81.127V81.1924V81.2578V81.3232V81.3886V81.454V81.5194V81.5848V81.6502V81.7156V81.781V81.8464V81.9118V81.9772V82.0426V82.108V82.1734V82.2388V82.3042V82.3696V82.435V82.5004V82.5658V82.6312V82.6966V82.762V82.8274V82.8928V82.9582V83.0236V83.089V83.1544V83.2198V83.2852V83.3506V83.416V83.4814V83.5468V83.6122V83.6776V83.743V83.8084V83.8738V83.9392V84.0046V84.07V84.1354V84.2008V84.2662V84.3316V84.397V84.4624V84.5278V84.5932V84.6586V84.724V84.7894V84.8548V84.9202V84.9856V85.051V85.1164V85.1818V85.2472V85.3126V85.378V85.4434V85.5088V85.5742V85.6396V85.705V85.7704V85.8358V85.9012V85.9666V86.032V86.0974V86.1628V86.2282V86.2936V86.359V86.4244V86.4898V86.5552V86.6206V86.686V86.7514V86.8168V86.8822V86.9476V87.013V87.0784V87.1438V87.2092V87.2746V87.34V87.4054V87.4708V87.5362V87.6016V87.667V87.7324V87.7978V87.8632V87.9286V87.994V88.0594V88.1248V88.1902V88.2556V88.321V88.3864V88.4518V88.5172V88.5826V88.648V88.7134V88.7788V88.8442V88.9096V88.975V89.0404V89.1058V89.1712V89.2366V89.302V89.3674V89.4328V89.4982V89.5636V89.629V89.6944V89.7598V89.8252V89.8906V89.956V90.0214V90.0868V90.1522V90.2176V90.283V90.3484V90.4138V90.4792V90.5446V90.61C70.2297 92.1796 69.9681 93.6184 69.5757 94.861C71.9301 96.7577 74.0883 99.5699 74.4153 103.69C74.4807 104.409 74.4807 105.129 74.4807 105.848V105.914V105.979V106.045V106.11V106.175V106.241V106.306V106.372V106.437V106.502V106.568V106.633V106.699V106.764V106.829V106.895V106.96V107.026V107.091V107.156V107.222V107.287V107.353V107.418V107.483V107.549V107.614V107.68V107.745V107.81V107.876V107.941V108.007V108.072V108.137V108.203V108.268V108.334V108.399V108.464V108.53V108.595V108.661V108.726V108.791V108.857V108.922V108.988V109.053V109.118V109.184V109.249V109.315V109.38V109.445V109.511V109.576V109.642V109.707V109.772V109.838V109.903V109.969V110.034V110.099V110.165V110.23V110.296V110.361V110.426V110.492V110.557V110.623V110.688V110.753V110.819V110.884V110.95V111.015V111.08V111.146V111.211V111.277V111.342V111.407V111.473V111.538V111.604V111.669V111.734V111.8V111.865V111.931V111.996V112.061V112.127V112.192V112.258V112.323V112.388V112.454V112.519V112.585V112.65V112.715V112.781V112.846V112.912V112.977V113.042V113.108V113.173V113.239V113.304V113.369V113.435V113.5V113.566V113.631V113.696V113.762V113.827V113.893V113.958V114.023V114.089V114.154V114.22V114.285V114.35V114.416V114.481V114.547V114.612V114.677V114.743V114.808V114.874V114.939V115.004V115.07V115.135ZM215.157 79.8189H211.429V78.9687V78.9033V78.8379V78.7725V78.7071V78.6417V78.5763V78.5109V78.4455V78.3801V78.3147V78.2493V78.1839V78.1185V78.053V77.9877V77.9223V77.8568V77.7914V77.726V77.6606V77.5952V77.5298V77.4644V77.399V77.3336V77.2682V77.2028V77.1374V77.072V77.0066V76.9412V76.8758V76.8104V76.745V76.6796V76.6142V76.5488V76.4834V76.418V76.3526V76.2872V76.2218V76.1564V76.091V76.0256V75.9602V75.8948V75.8294V75.764V75.6986V75.6332V75.5678V75.5024V75.437V75.3716V75.3062V75.2408V75.1754V75.11V75.0446V74.9792V74.9138V74.8484V74.783V74.7176V74.6522V74.5868V74.5214V74.456V74.3906V74.3252V74.2598V74.1944V74.129V74.0636V73.9982V73.9328V73.8674V73.802V73.7366V73.6712V73.6058V73.5404V73.475V73.4096V73.3442V73.2788V73.2134V73.148V73.0826V73.0172V72.9518V72.8864V72.821V72.7556V72.6902V72.6248V72.5594V72.494V72.4286V72.3632V72.2978V72.2324V72.167V72.1016V72.0362V71.9708V71.9054V71.84V71.7746V71.7092V71.6438V71.5784V71.513V71.4476V71.3822V71.3168V71.2514V71.186V71.1206V71.0552V70.9898V70.9244V70.859V70.7936V70.7282V70.6628V70.5974V70.532V70.4666V70.4012V70.3358V70.2704V70.205V70.1396V70.0742V70.0088V69.9434V69.878V69.8126V69.7472V69.6818V69.6164V69.551V69.4856V69.4202V69.3548V69.2894V69.224V69.1586V69.0932V69.0278V68.9624V68.897V68.8316V68.7662V68.7008V68.6354V68.57V68.5046V68.4392V68.3738V68.3084V68.243V68.1776V68.1122V68.0468V67.9814V67.916V67.8506V67.7852V67.7198V67.6544V67.589V67.5236V67.4582V67.3928V67.3274V67.262V67.1966V67.1312V67.0658V67.0004V66.935V66.8696V66.8042V66.7388V66.6734V66.608C211.429 61.1797 211.429 52.4815 211.298 52.2853C211.102 52.0891 199.33 51.1081 199.134 51.1735C199.107 51.1735 199.091 51.6447 199.069 52.3141C199.036 53.299 198.989 54.7127 198.872 55.6861C196.714 54.1819 193.378 53.0047 188.473 53.3971C176.636 54.4435 164.21 62.1608 164.341 80.2767V80.3421V80.4075V80.4729V80.5383V80.6037V80.6691V80.7345V80.7999V80.8653V80.9307V80.9961V81.0615V81.1269V81.1923V81.2577V81.3231V81.3885V81.4539V81.5193V81.5847V81.6501V81.7155V81.7809V81.8463V81.9117V81.9771V82.0425V82.1079V82.1733V82.2387V82.3041V82.3695V82.4349V82.5003V82.5657V82.6311V82.6965V82.7619V82.8273V82.8927V82.9581V83.0235V83.0889V83.1543V83.2197V83.2851V83.3505V83.4159V83.4813V83.5467V83.6121V83.6775V83.7429V83.8083V83.8737V83.9391V84.0045V84.0699V84.1353V84.2007V84.2661V84.3315V84.3969V84.4623V84.5277V84.5931V84.6585V84.7239V84.7893V84.8547V84.9201V84.9855V85.0509V85.1163V85.1817V85.2471V85.3125V85.3779V85.4433V85.5087V85.5741V85.6395V85.7049V85.7703V85.8357V85.9011V85.9665V86.0319V86.0973V86.1627V86.2281V86.2935V86.3589V86.4243V86.4897V86.5551V86.6205V86.6859V86.7513V86.8167V86.8821V86.9475V87.0129V87.0783V87.1437V87.2091V87.2745V87.3399V87.4053V87.4707V87.5361V87.6015V87.6669V87.7323V87.7977V87.8631V87.9285V87.9939V88.0593V88.1247V88.1901V88.2555V88.3209V88.3863V88.4517V88.5171V88.5825V88.6479V88.7133V88.7787V88.8441V88.9095V88.9749V89.0403V89.1057V89.1711V89.2365V89.3019V89.3673V89.4327V89.4981V89.5635V89.6289V89.6943V89.7597V89.8251V89.8905V89.9559V90.0213V90.0867V90.1521V90.2175V90.2829V90.3483V90.4137V90.4791V90.5445V90.6099V90.6753V90.7407V90.8061V90.8715V90.9369V91.0023V91.0677V91.1331V91.1985V91.2639V91.3293V91.3947V91.4601V91.5255V91.5909V91.6563V91.7217V91.7871V91.8525V91.9179V91.9833V92.0487C164.341 93.2913 164.406 94.534 164.537 95.842C166.172 112.977 176.636 122.591 193.182 121.283C199.591 120.76 204.562 116.181 206.197 113.565L207.374 118.601C207.374 118.601 219.473 117.097 219.408 116.77V116.705V116.639V116.574V116.508V116.443V116.378V116.312V116.247V116.181V116.116V116.051V115.985V115.92V115.854V115.789V115.724V115.658V115.593V115.527V115.462V115.397V115.331V115.266V115.2V115.135V115.07V115.004V114.939V114.873V114.808V114.743V114.677V114.612V114.546V114.481V114.416V114.35V114.285V114.219V114.154V114.089V114.023V113.958V113.892V113.827V113.762V113.696V113.631V113.565V113.5V113.435V113.369V113.304V113.238V113.173V113.108V113.042V112.977V112.911V112.846V112.781V112.715V112.65V112.584V112.519V112.454V112.388V112.323V112.257V112.192V112.127V112.061V111.996V111.93V111.865V111.8V111.734V111.669V111.603V111.538V111.473V111.407V111.342V111.276V111.211V111.146V111.08V111.015V110.949V110.884V110.819V110.753V110.688V110.622V110.557V110.492V110.426V110.361V110.295V110.23V110.165V110.099V110.034V109.968V109.903V109.838V109.772V109.707V109.641V109.576V109.511V109.445V109.38V109.314V109.249V109.184V109.118V109.053V108.987V108.922V108.857V108.791V108.726V108.66V108.595V108.53V108.464V108.399V108.333V108.268V108.203V108.137V108.072V108.006V107.941V107.876V107.81V107.745V107.679V107.614V107.549V107.483V107.418V107.352V107.287V107.222V107.156V107.091V107.025V106.96V106.895V106.829V106.764V106.698V106.633V106.568V106.502V106.437V106.371V106.306V106.241V106.175V106.11V106.044V105.979V105.914V105.848V105.783V105.717V105.652V105.587V105.521V105.456V105.39V105.325V105.26V105.194V105.129V105.063V104.998V104.933C219.212 103.101 216.792 85.1163 215.157 79.8189ZM190.37 83.4814V83.416V83.3506V83.2852V83.2198V83.1544V83.089V83.0236V82.9582V82.8928V82.8274V82.762V82.6966V82.6312V82.5658V82.5004V82.435V82.3696V82.3041V82.2388V82.1734V82.1079V82.0425V81.9771V81.9118V81.8463V81.7809V81.7155V81.6501V81.5847V81.5193V81.4539V81.3885V81.3231V81.2577V81.1923V81.1269C191.09 80.7999 193.313 80.6037 196.126 80.4075C194.818 79.0995 192.856 78.1185 189.847 78.3801C185.335 78.7725 182.392 82.3696 181.018 86.9476C182.522 91.4602 185.923 95.3842 190.567 96.1036C190.436 94.2724 190.37 92.7682 190.37 92.7682V92.7028V92.6374V92.572V92.5066V92.4412V92.3758V92.3104V92.245V92.1796V92.1142V92.0488V91.9834V91.918V91.8526V91.7872V91.7218V91.6564V91.591V91.5256V91.4602V91.3948V91.3294V91.264V91.1986V91.1332V91.0678V91.0024V90.937V90.8716V90.8062V90.7408V90.6754V90.61V90.5446V90.4792V90.4138V90.3484V90.283V90.2176V90.1522V90.0868V90.0214V89.956V89.8906V89.8252V89.7598V89.6944V89.629V89.5636V89.4982V89.4328V89.3674V89.302V89.2366V89.1712V89.1058V89.0404V88.975V88.9096V88.8442V88.7788V88.7134V88.648V88.5826V88.5172V88.4518V88.3864V88.321V88.2556V88.1902V88.1248V88.0594V87.994V87.9286V87.8632V87.7978V87.7324V87.667V87.6016V87.5362V87.4708V87.4054V87.34V87.2746V87.2092V87.1438V87.0784V87.013V86.9476V86.8822V86.8168V86.7514V86.686V86.6206V86.5552V86.4898V86.4244V86.359V86.2936V86.2282V86.1628V86.0974V86.032V85.9666V85.9012V85.8358V85.7704V85.705V85.6396V85.5742V85.5088V85.4434V85.378V85.3126V85.2472V85.1818V85.1164V85.051V84.9856V84.9202V84.8548V84.7894V84.724V84.6586V84.5932V84.5278V84.4624V84.397V84.3316V84.2662V84.2008V84.1354V84.07V84.0046V83.9392V83.8738V83.8084V83.743V83.6776V83.6122V83.5468V83.4814Z" fill="url(#paint0_linear)"/>
<path fill-rule="evenodd" clip-rule="evenodd" d="M273.102 73.9324C271.663 56.5359 260.61 47.5106 246.418 48.6878C232.292 49.865 221.174 57.9093 222.809 77.8564C224.444 97.8035 235.889 105.194 250.996 104.017C268.001 102.578 274.214 88.1897 273.102 73.9324ZM192.136 91.4596C190.566 90.0862 190.37 80.9956 190.37 80.9956C192.819 79.8999 214.513 79.8205 215.08 79.8184L215.091 79.8184C216.726 85.1812 219.146 103.166 219.343 105.194C219.408 105.521 207.309 107.025 207.309 107.025L206.132 101.989C204.497 104.605 199.526 109.183 193.117 109.706C176.571 111.014 166.107 101.401 164.472 84.2656C162.51 63.4683 175.786 54.77 188.408 53.6582C193.313 53.2658 196.649 54.443 198.807 55.9472C198.924 54.974 198.971 53.5606 199.004 52.5758V52.5753C199.026 51.9059 199.042 51.4346 199.068 51.4346C199.265 51.3692 211.037 52.3502 211.233 52.5464C211.429 52.808 211.364 71.0547 211.364 71.0547L198.676 73.1475C198.022 70.9893 196.191 66.1497 189.847 66.6729C182.98 67.1961 179.71 75.1749 180.233 82.8922C180.691 89.6938 185.661 96.6917 193.052 96.1031C198.218 95.6453 198.48 90.871 198.48 90.871L192.136 91.4596ZM134.322 59.0871C133.799 59.2833 135.827 69.4858 135.892 69.4858C135.957 69.4858 142.105 69.355 142.105 69.355C142.105 69.355 144.002 85.0511 143.675 84.9857C143.509 84.9526 138.299 78.6215 133.152 72.367L133.151 72.3667L133.151 72.3663L133.15 72.365L133.148 72.3623C128.112 66.2432 123.137 60.1989 123.008 60.1989C122.812 60.1989 107.704 61.1145 107.443 61.3761C107.181 61.6377 109.143 74.3254 109.339 74.4562C109.47 74.587 113.067 74.3908 114.179 74.1292C115.225 82.7621 117.187 103.232 116.991 103.363C116.893 103.461 115.7 103.723 114.506 103.984L114.506 103.985C113.312 104.246 112.119 104.508 112.021 104.606C111.926 104.701 112.289 106.808 112.667 109.007L112.667 109.007L112.667 109.007L112.667 109.008C113.073 111.362 113.496 113.821 113.394 114.023C113.198 114.416 136.415 111.538 136.873 111.211C137.236 110.984 136.464 106.97 135.958 104.343C135.736 103.188 135.565 102.3 135.565 102.121C135.531 101.849 134.19 101.806 132.855 101.764H132.855C131.621 101.725 130.391 101.686 130.202 101.467C129.81 101.074 128.567 86.3591 128.567 86.3591C128.567 86.3591 146.291 111.473 146.683 111.865C146.972 112.154 152.971 111.273 156.27 110.788L156.27 110.788L156.27 110.788L156.27 110.788L156.271 110.788C157.452 110.614 158.286 110.492 158.39 110.492C158.72 110.492 155.531 80.5831 154.512 71.017L154.512 71.0167C154.319 69.2134 154.204 68.1331 154.204 68.1124C154.204 67.9816 158.848 67.1314 159.305 67.066C159.675 67.0131 158.806 60.5068 158.459 57.9117C158.377 57.2965 158.324 56.9011 158.324 56.8635C158.324 56.7327 134.846 58.8909 134.322 59.0871ZM96.259 73.6711L99.7252 104.017C99.8009 104.017 100.09 103.997 100.509 103.969H100.509H100.509C102.262 103.852 106.278 103.582 106.331 103.951C106.337 104.004 106.356 104.144 106.385 104.355C106.641 106.253 107.665 113.847 107.312 114.023C106.919 114.154 82.1979 116.835 81.2823 115.724C80.3667 114.612 80.1051 106.437 80.3667 106.11C80.6937 105.783 85.795 105.456 85.795 105.456L82.1979 74.3905C82.1979 74.3905 77.8161 74.8483 77.4237 74.5213C77.0313 74.1943 76.8351 63.534 76.8351 63.534L101.556 61.1796L102.93 71.8399L96.259 73.6711ZM63.2553 90.9165C62.8741 91.1731 62.6432 91.3286 62.6432 91.3943C62.6432 91.4081 62.7645 91.4478 62.9826 91.5192C64.8396 92.1276 73.7129 95.0343 74.4153 103.755C75.3963 115.854 66.5672 118.928 53.4217 119.974C46.5547 120.563 37.6602 120.694 31.3164 120.628C30.597 117.031 30.27 109.249 30.597 108.595C31.0548 107.941 36.0252 107.941 36.0252 107.941C36.0252 107.941 35.4366 79.5569 34.7172 79.2953C34.1286 78.9683 28.1772 79.7531 28.1772 79.7531C26.8692 76.9409 27.0654 68.1772 27.0654 68.1772C27.0654 68.1772 40.5379 66.346 48.7129 65.692C53.1601 65.2996 69.1178 65.038 70.1642 78.1835C70.7632 85.8612 65.1511 89.64 63.2553 90.9165ZM47.7977 78.1829L48.3863 87.666C48.3863 87.7314 56.6922 87.1428 56.3652 82.107C56.0382 75.6977 47.7977 78.1829 47.7977 78.1829ZM50.2168 107.745L50.2168 107.744C50.2151 107.745 50.2151 107.745 50.2168 107.745ZM50.2168 107.744L49.5628 99.1117C49.5628 99.1117 59.0459 97.2151 59.4383 102.578C59.8843 107.484 50.5841 107.735 50.2261 107.744L50.2168 107.744ZM238.439 77.3331C239.159 86.0967 244.848 89.3014 249.623 88.909C254.266 88.5166 258.125 85.1157 257.405 75.7635C256.751 67.9808 253.743 62.1602 247.399 62.6834C239.878 63.272 237.785 69.2888 238.439 77.3331Z" fill="white"/>
<path d="M157.073 257.892C156.829 257.913 157.295 257.623 157.044 257.564C156.554 257.477 156.054 257.461 155.559 257.517C154.488 257.616 153.504 258.144 152.831 258.981C152.158 259.817 151.854 260.89 151.989 261.954C152.022 263.032 152.502 264.048 153.315 264.759C154.127 265.47 155.199 265.812 156.275 265.704C156.794 265.662 157.305 265.55 157.794 265.373C158.043 265.262 157.471 265.026 157.761 265C158.051 264.975 159.077 264.885 159.385 264.858C159.852 264.812 160.318 264.955 160.677 265.256C161.036 265.556 161.259 265.989 161.293 266.456C161.305 267.265 160.8 267.992 160.037 268.264C158.956 268.748 157.8 269.043 156.62 269.137C154.552 269.489 152.432 268.943 150.793 267.637C149.154 266.331 148.153 264.389 148.04 262.3C147.912 260.245 148.612 258.225 149.985 256.688C151.358 255.151 153.29 254.225 155.35 254.116C156.433 253.996 157.53 254.057 158.593 254.296C159.391 254.423 160.006 255.062 160.101 255.862C160.154 256.329 160.013 256.798 159.71 257.158C159.407 257.518 158.969 257.738 158.499 257.767C158.243 257.79 157.317 257.871 157.073 257.892Z" fill="#CC8C1D"/>
<path d="M162.135 255.354C162.149 254.639 161.583 253.689 162.232 253.632C162.42 253.616 163.623 253.511 163.884 253.488C164.859 253.402 165.742 254.064 165.931 255.022L166.773 264.654L171.403 264.249C171.844 264.216 172.28 264.361 172.612 264.651C172.945 264.941 173.148 265.352 173.174 265.792C173.224 266.228 173.096 266.666 172.817 267.006C172.539 267.346 172.135 267.56 171.696 267.598L165.114 268.174C164.619 268.235 164.12 268.094 163.731 267.784C163.342 267.473 163.095 267.019 163.046 266.524L162.135 255.354Z" fill="#CC8C1D"/>
<path d="M183.233 262.486C183.591 261.838 183.72 261.089 183.599 260.359L183.002 253.529C182.93 252.705 182.301 251.693 183.072 251.626C183.246 251.611 184.508 251.5 184.724 251.481C185.766 251.39 186.685 252.159 186.776 253.199L187.406 260.401C187.592 261.835 187.257 263.289 186.46 264.498C185.202 265.883 183.541 266.702 181.807 266.927C181.511 266.965 180.155 267.078 179.839 267.105C178.185 267.25 177.575 266.487 176.169 265.398C175.183 264.341 174.601 262.97 174.526 261.528L173.896 254.326C173.912 253.558 173.271 252.667 173.993 252.604C174.16 252.589 175.437 252.477 175.645 252.459C176.62 252.374 177.503 253.035 177.692 253.994L178.29 260.823C178.291 261.561 178.54 262.277 178.998 262.857C179.588 263.457 180.444 263.715 181.269 263.54C182.11 263.565 182.907 263.163 183.386 262.473L183.233 262.486Z" fill="#CC8C1D"/>
<path fill-rule="evenodd" clip-rule="evenodd" d="M196.754 265.406L192.607 265.769C192.114 265.824 191.618 265.681 191.23 265.371C190.843 265.062 190.594 264.611 190.539 264.119L189.582 253.174C189.55 252.679 189.717 252.192 190.045 251.82C190.373 251.448 190.836 251.221 191.332 251.19L194.711 250.894C195.777 250.703 196.876 250.946 197.762 251.569C198.647 252.192 199.245 253.143 199.423 254.21C199.638 255.497 199.04 256.784 197.916 257.452C199.774 257.582 201.219 259.118 201.231 260.978C201.468 263.692 199.056 265.182 196.665 265.392L196.754 265.406ZM194.205 253.96L193.393 254.031L193.618 256.593L194.254 256.537C194.66 256.555 195.054 256.39 195.327 256.089C195.6 255.788 195.724 255.381 195.665 254.98C195.632 254.636 195.453 254.323 195.173 254.12C194.893 253.917 194.54 253.843 194.202 253.917L194.205 253.96ZM193.884 259.635L194.981 259.539L195.003 259.537C196.582 259.399 197.245 259.893 197.321 260.768C197.363 262 196.546 262.27 195.537 262.358L194.133 262.481L193.884 259.635Z" fill="#CC8C1D"/>
<path d="M155.392 257.708C154.902 257.621 154.402 257.606 153.907 257.662C152.837 257.76 151.852 258.289 151.179 259.125C150.506 259.962 150.202 261.035 150.337 262.099C150.37 263.177 150.85 264.192 151.663 264.903C152.476 265.614 153.548 265.956 154.623 265.848C155.142 265.806 155.653 265.695 156.142 265.517C156.652 265.29 157.186 265.117 157.733 265.003C158.2 264.956 158.666 265.099 159.025 265.4C159.384 265.701 159.607 266.134 159.642 266.6C159.654 267.409 159.148 268.136 158.385 268.409C157.304 268.892 156.148 269.187 154.968 269.281C152.9 269.633 150.78 269.088 149.141 267.782C147.502 266.476 146.501 264.534 146.388 262.444C146.26 260.39 146.961 258.37 148.333 256.833C149.706 255.296 151.638 254.37 153.698 254.261C154.782 254.141 155.878 254.201 156.942 254.44C157.739 254.567 158.354 255.207 158.449 256.007C158.503 256.474 158.361 256.942 158.058 257.302C157.755 257.662 157.318 257.883 156.847 257.912C156.357 257.888 155.87 257.82 155.392 257.708Z" fill="#FDCB00"/>
<path d="M160.483 255.499C160.503 254.522 161.257 253.718 162.233 253.632C163.208 253.547 164.09 254.209 164.279 255.167L165.122 264.798L169.752 264.393C170.193 264.361 170.628 264.505 170.961 264.795C171.294 265.086 171.496 265.497 171.523 265.937C171.573 266.373 171.444 266.811 171.166 267.151C170.887 267.491 170.483 267.704 170.045 267.743L163.462 268.318C162.967 268.38 162.469 268.239 162.08 267.928C161.69 267.618 161.443 267.164 161.394 266.669L160.483 255.499Z" fill="#FDCB00"/>
<path d="M181.947 260.503L181.35 253.673C181.259 252.633 182.03 251.717 183.072 251.625C184.114 251.534 185.033 252.303 185.124 253.343L185.754 260.545C185.94 261.979 185.604 263.433 184.808 264.642C182.14 267.58 177.655 267.972 174.517 265.542C173.531 264.485 172.949 263.115 172.874 261.672L172.244 254.47C172.264 253.493 173.018 252.688 173.993 252.603C174.968 252.518 175.851 253.18 176.04 254.138L176.637 260.967C176.639 261.705 176.888 262.421 177.346 263.001C177.936 263.601 178.792 263.859 179.617 263.685C180.458 263.709 181.255 263.307 181.734 262.617C182.092 261.969 182.009 261.204 181.947 260.503Z" fill="#FDCB00"/>
<path fill-rule="evenodd" clip-rule="evenodd" d="M195.102 265.55L190.955 265.912C190.461 265.968 189.966 265.825 189.578 265.515C189.19 265.206 188.942 264.755 188.887 264.263L187.929 253.318C187.898 252.823 188.064 252.336 188.393 251.964C188.721 251.592 189.184 251.365 189.679 251.334L193.058 251.038C194.125 250.847 195.224 251.09 196.109 251.713C196.995 252.336 197.593 253.287 197.77 254.354C197.986 255.641 197.388 256.928 196.263 257.596C198.122 257.726 199.566 259.262 199.579 261.121C199.816 263.836 197.404 265.326 195.012 265.535L195.102 265.55ZM191.738 254.131L191.965 256.736L192.602 256.681C193.008 256.698 193.401 256.534 193.674 256.233C193.947 255.932 194.072 255.525 194.013 255.123C193.98 254.78 193.8 254.467 193.521 254.264C193.241 254.061 192.88 254.031 192.549 254.06L191.738 254.131ZM192.232 259.779L193.329 259.683L193.351 259.681C194.93 259.543 195.593 260.036 195.669 260.912C195.711 262.144 194.894 262.414 193.885 262.502L192.481 262.625L192.232 259.779Z" fill="#FDCB00"/>
<path fill-rule="evenodd" clip-rule="evenodd" d="M255.262 191.719C251.992 175.434 241.789 169.09 241.789 169.09C241.789 169.09 248.918 164.905 247.283 150.517C244.274 124.226 225.374 113.5 207.912 113.5C202.921 113.02 204.867 116.731 205.921 118.74C206.304 119.469 206.569 119.975 206.342 119.975C189.142 120.367 172.857 125.795 168.345 141.949C166.971 146.723 167.429 153.133 168.279 159.803C169.98 174.192 180.182 181.124 180.182 181.124C180.182 181.124 163.636 175.369 167.887 205.126C171.288 228.866 190.45 246.394 219.422 243.124C240.677 240.704 261.671 223.438 255.262 191.719ZM206.408 140.38C211.509 139.856 216.022 142.996 216.48 147.377C216.938 151.759 213.144 155.749 208.043 156.272C202.942 156.795 198.429 153.656 197.971 149.274C197.514 144.892 201.307 140.903 206.408 140.38ZM202.483 199.109C203.007 204.145 208.239 207.742 214.125 207.153C220.076 206.565 224.458 201.987 223.869 196.885C223.346 191.849 218.114 188.252 212.228 188.841C206.342 189.43 201.96 194.073 202.483 199.109Z" fill="#007A8C"/>
<path fill-rule="evenodd" clip-rule="evenodd" d="M253.169 184.917C250.161 168.829 234.988 163.793 234.988 163.793C234.988 163.793 244.994 154.964 243.228 141.099C240.743 121.74 225.374 111.538 207.847 111.603C207.585 111.603 207.323 111.596 207.062 111.589C206.539 111.574 206.015 111.56 205.492 111.603C184.826 111.996 165.533 127.103 167.429 148.751C168.476 160.981 180.117 169.287 180.117 169.287C180.117 169.287 166.252 177.331 166.579 193.681C166.841 207.284 173.708 217.29 183.452 223.242C196.467 231.286 211.574 233.117 223.804 229.52C254.412 220.691 255.066 195.054 253.169 184.917ZM204.249 135.409C209.351 134.886 213.078 138.09 213.536 142.276C213.994 146.462 210.92 150.124 205.819 150.647C200.718 151.17 196.99 148.227 196.532 144.042C196.14 139.791 199.148 135.932 204.249 135.409ZM198.429 192.7C198.952 197.54 204.903 200.352 208.893 199.829C213.601 199.175 218.114 196.755 217.525 190.542C217.068 185.702 212.947 182.236 207.061 182.825C201.175 183.413 197.905 187.86 198.429 192.7Z" fill="#00D1F0"/>
<path fill-rule="evenodd" clip-rule="evenodd" d="M253.169 184.917C250.161 168.829 234.988 163.793 234.988 163.793C234.988 163.793 244.994 154.964 243.228 141.099C240.743 121.74 225.374 111.538 207.847 111.603C207.585 111.603 207.323 111.596 207.062 111.589C206.539 111.574 206.015 111.56 205.492 111.603C184.826 111.996 165.533 127.103 167.429 148.751C168.476 160.981 180.117 169.287 180.117 169.287C180.117 169.287 166.252 177.331 166.579 193.681C166.841 207.284 173.708 217.29 183.452 223.242C196.467 231.286 211.574 233.117 223.804 229.52C254.412 220.691 255.066 195.054 253.169 184.917ZM204.249 135.409C209.351 134.886 213.078 138.09 213.536 142.276C213.994 146.462 210.92 150.124 205.819 150.647C200.718 151.17 196.99 148.227 196.532 144.042C196.14 139.791 199.148 135.932 204.249 135.409ZM198.429 192.7C198.952 197.54 204.903 200.352 208.893 199.829C213.601 199.175 218.114 196.755 217.525 190.542C217.068 185.702 212.947 182.236 207.061 182.825C201.175 183.413 197.905 187.86 198.429 192.7Z" fill="url(#paint1_radial)" fill-opacity="0.4"/>
<path d="M163.505 202.51C163.505 201.071 163.505 199.632 163.374 198.128C162.655 188.972 158.011 182.759 153.891 178.966C156.049 175.63 157.946 171.249 158.011 165.82C158.011 165.755 158.011 165.69 158.011 165.624C158.011 165.559 158.011 165.493 158.011 165.428C158.011 165.363 158.011 165.297 158.011 165.232C158.011 165.166 158.011 165.101 158.011 165.036C158.011 164.97 158.011 164.905 158.011 164.839C158.011 164.774 158.011 164.709 158.011 164.643C158.011 164.578 158.011 164.512 158.011 164.447C158.011 164.382 158.011 164.316 158.011 164.251C158.011 164.185 158.011 164.12 158.011 164.055C158.011 163.989 158.011 163.924 158.011 163.858C158.011 163.793 158.011 163.728 158.011 163.662C158.011 163.597 158.011 163.531 158.011 163.466C158.011 163.401 158.011 163.335 158.011 163.27C158.011 163.204 158.011 163.139 158.011 163.074C158.011 163.008 158.011 162.943 158.011 162.877C158.011 162.812 158.011 162.747 158.011 162.681C158.011 162.616 158.011 162.55 158.011 162.485C158.011 162.42 158.011 162.354 158.011 162.289C158.011 162.223 158.011 162.158 158.011 162.093C158.011 162.027 158.011 161.962 158.011 161.896C158.011 161.831 158.011 161.766 158.011 161.7C158.011 161.635 158.011 161.569 158.011 161.504C158.011 161.439 158.011 161.373 158.011 161.308C158.011 161.242 158.011 161.177 158.011 161.112C158.011 161.046 158.011 160.981 158.011 160.915C158.011 160.85 158.011 160.785 158.011 160.719C158.011 160.654 158.011 160.588 158.011 160.523C158.011 160.458 158.011 160.392 158.011 160.327C158.011 160.261 158.011 160.196 158.011 160.131C158.011 160.065 158.011 160 158.011 159.934C158.011 159.869 158.011 159.804 158.011 159.738C158.011 159.673 158.011 159.607 158.011 159.542C158.011 159.477 158.011 159.411 158.011 159.346C158.011 159.28 158.011 159.215 158.011 159.15C158.011 159.084 158.011 159.019 158.011 158.953C158.011 158.888 158.011 158.823 158.011 158.757C158.011 158.692 158.011 158.626 158.011 158.561C158.011 158.496 158.011 158.43 158.011 158.365C158.011 158.299 158.011 158.234 158.011 158.169C158.011 158.103 158.011 158.038 158.011 157.972C158.011 157.907 158.011 157.842 158.011 157.776C158.011 157.711 158.011 157.645 158.011 157.58C158.011 157.515 158.011 157.449 158.011 157.384C158.011 157.318 158.011 157.253 158.011 157.188C158.011 157.122 158.011 157.057 158.011 156.991C158.011 156.926 158.011 156.861 158.011 156.795C158.011 156.73 158.011 156.664 158.011 156.599C158.011 156.534 158.011 156.468 158.011 156.403C158.011 156.337 158.011 156.272 158.011 156.207C158.011 156.141 158.011 156.076 158.011 156.01C158.011 155.16 158.011 154.245 157.946 153.394C156.049 129.85 138.261 118.928 116.024 120.694C93.9845 122.46 83.6512 142.015 83.3242 145.873C83.3242 145.939 83.3242 146.004 83.3242 146.07V146.135C83.3242 146.2 83.3242 146.266 83.3242 146.331V146.397C83.3242 146.462 83.3242 146.527 83.3242 146.593V146.658C83.3242 146.724 83.3242 146.789 83.3242 146.854V146.92C83.3242 146.985 83.3242 147.051 83.3242 147.116V147.181C83.3242 147.247 83.3242 147.312 83.3242 147.378V147.443C83.3242 147.508 83.3242 147.574 83.3242 147.639V147.705C83.3242 147.77 83.3242 147.835 83.3242 147.901V147.966C83.3242 148.032 83.3242 148.097 83.3242 148.162V148.228C83.3242 148.293 83.3242 148.359 83.3242 148.424V148.489C83.3242 148.555 83.3242 148.62 83.3242 148.686V148.751C83.3242 148.816 83.3242 148.882 83.3242 148.947V149.013C83.3242 149.078 83.3242 149.143 83.3242 149.209V149.274C83.3242 149.34 83.3242 149.405 83.3242 149.47V149.536C83.3242 149.601 83.3242 149.667 83.3242 149.732V149.797C83.3242 149.863 83.3242 149.928 83.3242 149.994V150.059C83.3242 150.124 83.3242 150.19 83.3242 150.255V150.321C83.3242 150.386 83.3242 150.451 83.3242 150.517V150.582C83.3242 150.648 83.3242 150.713 83.3242 150.778V150.844C83.3242 150.909 83.3242 150.975 83.3242 151.04V151.105C83.3242 151.171 83.3242 151.236 83.3242 151.302V151.367C83.3242 151.432 83.3242 151.498 83.3242 151.563V151.629C83.3242 151.694 83.3242 151.759 83.3242 151.825V151.89C83.3242 151.956 83.3242 152.021 83.3242 152.086V152.152C83.3242 152.217 83.3242 152.283 83.3242 152.348V152.413C83.3242 152.479 83.3242 152.544 83.3242 152.61V152.675C83.3242 152.74 83.3242 152.806 83.3242 152.871V152.937C83.3242 153.002 83.3242 153.067 83.3242 153.133V153.198C83.3242 153.264 83.3242 153.329 83.3242 153.394V153.46C83.3242 153.525 83.3242 153.591 83.3242 153.656V153.721C83.3242 153.787 83.3242 153.852 83.3242 153.918V153.983C83.3242 154.048 83.3242 154.114 83.3242 154.179V154.245C83.3242 154.31 83.3242 154.375 83.3242 154.441V154.506C83.3242 154.572 83.3242 154.637 83.3242 154.702V154.768C83.3242 154.833 83.3242 154.899 83.3242 154.964V155.029C83.3242 155.095 83.3242 155.16 83.3242 155.226V155.291C83.3242 155.356 83.3242 155.422 83.3242 155.487V155.553C83.3242 155.618 83.3242 155.683 83.3242 155.749V155.814C83.3242 155.88 83.3242 155.945 83.3242 156.01V156.076C83.3242 156.141 83.3242 156.207 83.3242 156.272V156.337C83.3242 156.403 83.3242 156.468 83.3242 156.534V156.599C83.3242 156.664 83.3242 156.73 83.3242 156.795V156.861C83.3242 156.926 83.3242 156.991 83.3242 157.057V157.122C83.3242 157.188 83.3242 157.253 83.3242 157.318V157.384C83.3242 157.449 83.3242 157.515 83.3242 157.58V157.645C83.3242 157.711 83.3242 157.776 83.3242 157.842V157.907C83.3242 157.972 83.3242 158.038 83.3242 158.103V158.169C83.3242 158.234 83.3242 158.299 83.3242 158.365V158.43C83.3242 158.496 83.3242 158.561 83.3242 158.626V158.692C83.3242 158.757 83.3242 158.823 83.3242 158.888V158.953C83.3242 159.019 83.3242 159.084 83.3242 159.15V159.215C82.9972 163.27 100.917 176.35 100.917 176.35C100.917 176.35 107.392 165.297 116.351 164.578C119.164 164.316 121.78 165.363 123.415 167.39C120.537 170.922 114.651 171.314 109.354 171.706C109.354 171.706 109.354 171.772 109.354 171.903V171.903C109.354 171.903 109.354 171.968 109.354 172.099V172.099C109.354 172.099 109.354 172.164 109.354 172.295V172.295C109.354 172.295 109.354 172.36 109.354 172.491V172.491C109.354 172.491 109.354 172.557 109.354 172.687V172.687C109.354 172.687 109.354 172.753 109.354 172.884V172.884C109.354 172.884 109.354 172.949 109.354 173.08V173.08C109.354 173.08 109.354 173.145 109.354 173.276V173.276C109.354 173.276 109.354 173.341 109.354 173.472V173.472C109.354 173.472 109.354 173.538 109.354 173.668V173.668C109.354 173.668 109.354 173.734 109.354 173.865V173.865C109.354 173.865 109.354 173.93 109.354 174.061V174.061C109.354 174.061 109.354 174.126 109.354 174.257V174.257C109.354 174.257 109.354 174.322 109.354 174.453V174.453C109.354 174.453 109.354 174.519 109.354 174.649V174.649C109.354 174.649 109.354 174.715 109.354 174.846V174.846C109.354 174.846 109.354 174.911 109.354 175.042V175.042C109.354 175.042 109.354 175.107 109.354 175.238V175.238C109.354 175.238 109.354 175.303 109.354 175.434V175.434C109.354 175.434 109.354 175.5 109.354 175.63V175.63C109.354 175.63 109.354 175.696 109.354 175.827V175.827C109.354 175.827 109.354 175.892 109.354 176.023V176.023C109.354 176.023 109.354 176.088 109.354 176.219V176.219C109.354 176.219 109.354 176.284 109.354 176.415V176.415C109.354 176.415 109.354 176.481 109.354 176.611V176.611C109.354 176.611 109.354 176.677 109.354 176.808V176.808C109.354 176.808 109.354 176.873 109.354 177.004V177.004C109.354 177.004 109.354 177.069 109.354 177.2V177.2C109.354 177.2 109.354 177.265 109.354 177.396V177.396C109.354 177.396 109.354 177.462 109.354 177.592V177.592C109.354 177.592 109.354 177.658 109.354 177.789V177.789C109.354 177.789 109.354 177.854 109.354 177.985V177.985C109.354 177.985 109.354 178.05 109.354 178.181V178.181C109.354 178.181 109.354 178.246 109.354 178.377V178.377C109.354 178.377 109.354 178.443 109.354 178.573V178.573C109.354 178.573 109.354 178.639 109.354 178.77V178.77C109.354 178.77 109.354 178.835 109.354 178.966V178.966C109.354 178.966 109.354 179.031 109.354 179.162V179.162C109.354 179.162 109.354 179.228 109.354 179.358V179.358C109.354 179.358 109.354 179.424 109.354 179.554V179.554C109.354 179.554 109.354 179.62 109.354 179.751V179.751C109.354 179.751 109.354 179.816 109.354 179.947V179.947C109.354 179.947 109.354 180.012 109.354 180.143V180.143C109.354 180.143 109.354 180.209 109.354 180.339V180.339C109.354 180.339 109.354 180.405 109.354 180.536V180.536C109.354 180.536 109.354 180.601 109.354 180.732V180.732C109.354 180.732 109.354 180.797 109.354 180.928V180.928C109.354 180.928 109.354 180.993 109.354 181.124V181.124C109.354 181.124 109.354 181.19 109.354 181.32V181.32C109.354 181.32 109.354 181.386 109.354 181.517V181.517C109.354 181.517 109.354 181.582 109.354 181.713V181.713C109.354 181.713 109.419 203.229 111.25 204.799C117.332 204.276 122.826 205.322 125.835 208.461C124.919 209.181 123.742 209.704 122.237 209.835C109.942 210.816 102.029 197.082 100.655 197.213C99.3473 197.343 83.5204 218.664 83.5204 218.664C83.5204 218.664 83.5204 218.729 83.5858 218.795C83.5204 218.86 83.5204 218.86 83.5204 218.86C83.5204 218.86 83.5204 218.926 83.5858 218.991C83.5204 219.056 83.5204 219.056 83.5204 219.056C83.5204 219.056 83.5204 219.122 83.5858 219.187C83.5204 219.253 83.5204 219.253 83.5204 219.253C83.5204 219.253 83.5204 219.318 83.5858 219.383C83.5204 219.449 83.5204 219.449 83.5204 219.449C83.5204 219.449 83.5204 219.514 83.5858 219.58C83.5204 219.645 83.5204 219.645 83.5204 219.645C83.5204 219.645 83.5204 219.71 83.5858 219.776C83.5204 219.841 83.5204 219.841 83.5204 219.841C83.5204 219.841 83.5204 219.907 83.5858 219.972C83.5204 220.037 83.5204 220.037 83.5204 220.037C83.5204 220.037 83.5204 220.103 83.5858 220.168C83.5204 220.234 83.5204 220.234 83.5204 220.234C83.5204 220.234 83.5204 220.299 83.5858 220.364C83.5204 220.43 83.5204 220.43 83.5204 220.43C83.5204 220.43 83.5204 220.495 83.5858 220.561C83.5204 220.626 83.5204 220.626 83.5204 220.626C83.5204 220.626 83.5204 220.691 83.5858 220.757C83.5204 220.822 83.5204 220.822 83.5204 220.822C83.5204 220.822 83.5204 220.888 83.5858 220.953C83.5204 221.018 83.5204 221.018 83.5204 221.018C83.5204 221.018 83.5204 221.084 83.5858 221.149C83.5204 221.215 83.5204 221.215 83.5204 221.215C83.5204 221.215 83.5204 221.28 83.5858 221.345C83.5204 221.411 83.5204 221.411 83.5204 221.411C83.5204 221.411 83.5204 221.476 83.5858 221.542C83.5204 221.607 83.5204 221.607 83.5204 221.607C83.5204 221.607 83.5204 221.672 83.5858 221.738C83.5204 221.803 83.5204 221.803 83.5204 221.803C83.5204 221.803 83.5204 221.869 83.5858 221.934C83.5204 221.999 83.5204 221.999 83.5204 221.999C83.5204 221.999 83.5204 222.065 83.5858 222.13C83.5204 222.196 83.5204 222.196 83.5204 222.196C83.5204 222.196 83.5204 222.261 83.5858 222.326C83.5204 222.392 83.5204 222.392 83.5204 222.392C83.5204 222.392 83.5204 222.457 83.5858 222.523C83.5204 222.588 83.5204 222.588 83.5204 222.588C83.5204 222.588 83.5204 222.653 83.5858 222.719C83.5204 222.784 83.5204 222.784 83.5204 222.784C83.5204 222.784 83.5204 222.85 83.5858 222.915C83.5204 222.98 83.5204 222.98 83.5204 222.98C83.5204 222.98 83.5204 223.046 83.5858 223.111C83.5204 223.177 83.5204 223.177 83.5204 223.177C83.5204 223.177 83.5204 223.242 83.5858 223.307C83.5204 223.373 83.5204 223.373 83.5204 223.373C83.5204 223.373 83.5204 223.438 83.5858 223.504C83.5204 223.569 83.5204 223.569 83.5204 223.569C83.5204 223.569 83.5204 223.634 83.5858 223.7C83.5204 223.765 83.5204 223.765 83.5204 223.765C83.5204 223.765 83.5204 223.831 83.5858 223.896C83.5204 223.961 83.5204 223.961 83.5204 223.961C83.5204 223.961 83.5204 224.027 83.5858 224.092C83.5204 224.158 83.5204 224.158 83.5204 224.158C83.5204 224.158 83.5204 224.223 83.5858 224.288C83.5204 224.354 83.5204 224.354 83.5204 224.354C83.5204 224.354 83.5204 224.419 83.5858 224.485C83.5204 224.55 83.5204 224.55 83.5204 224.55C83.5204 224.55 83.5204 224.615 83.5858 224.681C83.5204 224.746 83.5204 224.746 83.5204 224.746C83.5204 224.746 83.5204 224.812 83.5858 224.877C83.5204 224.942 83.5204 224.942 83.5204 224.942C83.5204 224.942 83.5204 225.008 83.5858 225.073C83.5204 225.139 83.5204 225.139 83.5204 225.139C83.5204 225.139 83.5204 225.204 83.5858 225.269C83.5204 225.335 83.5204 225.335 83.5204 225.335C83.5204 225.335 83.5204 225.4 83.5858 225.466C83.5204 225.531 83.5204 225.531 83.5204 225.531C83.5204 225.531 83.5204 225.596 83.5858 225.662C83.5204 225.727 83.5204 225.727 83.5204 225.727C83.5204 225.727 83.5204 225.793 83.5858 225.858C83.5204 225.923 83.5204 225.923 83.5204 225.923C83.5204 225.923 83.5204 225.989 83.5858 226.054C83.5204 226.12 83.5204 226.12 83.5204 226.12C83.5204 226.12 83.5204 226.185 83.5858 226.25C83.5204 226.316 83.5204 226.316 83.5204 226.316C83.5204 226.316 83.5204 226.381 83.5858 226.447C83.5204 226.512 83.5204 226.512 83.5204 226.512C83.5204 226.512 83.5204 226.577 83.5858 226.643C83.5204 226.708 83.5204 226.708 83.5204 226.708C83.5204 226.708 83.5204 226.774 83.5858 226.839C83.5204 226.904 83.5204 226.904 83.5204 226.904C83.5204 226.904 83.5204 226.97 83.5858 227.035C83.5204 227.101 83.5204 227.101 83.5204 227.101C83.5204 227.101 83.5204 227.166 83.5858 227.231C83.5204 227.297 83.5204 227.297 83.5204 227.297C83.5204 227.297 83.5204 227.362 83.5858 227.428C83.5204 227.493 83.5204 227.493 83.5204 227.493C83.5204 227.493 83.5204 227.558 83.5858 227.624C83.5204 227.689 83.5204 227.689 83.5204 227.689C83.5204 227.689 83.5204 227.755 83.5858 227.82C83.5204 227.885 83.5204 227.885 83.5204 227.885C83.5204 227.885 83.5204 227.951 83.5858 228.016C83.5204 228.082 83.5204 228.082 83.5204 228.082C83.5204 228.082 83.5204 228.147 83.5858 228.212C83.5204 228.278 83.5204 228.278 83.5204 228.278C83.5204 228.278 83.5204 228.343 83.5858 228.409C83.5204 228.474 83.5204 228.474 83.5204 228.474C83.5204 228.474 83.5204 228.539 83.5858 228.605C83.5204 228.67 83.5204 228.67 83.5204 228.67C83.5204 228.67 95.8811 253.392 126.881 250.906C145.912 249.337 163.047 235.537 163.44 214.021C163.44 213.955 163.44 213.89 163.44 213.824C163.44 213.759 163.44 213.694 163.44 213.628C163.44 213.563 163.44 213.497 163.44 213.432C163.44 213.367 163.44 213.301 163.44 213.236C163.44 213.17 163.44 213.105 163.44 213.04C163.44 212.974 163.44 212.909 163.44 212.843C163.44 212.778 163.44 212.712 163.44 212.647C163.44 212.582 163.44 212.516 163.44 212.451C163.44 212.385 163.44 212.32 163.44 212.255C163.44 212.189 163.44 212.124 163.44 212.058C163.44 211.993 163.44 211.928 163.44 211.862C163.44 211.797 163.44 211.731 163.44 211.666C163.44 211.601 163.44 211.535 163.44 211.47C163.44 211.404 163.44 211.339 163.44 211.274C163.44 211.208 163.44 211.143 163.44 211.077C163.44 211.012 163.44 210.947 163.44 210.881C163.44 210.816 163.44 210.75 163.44 210.685C163.44 210.62 163.44 210.554 163.44 210.489C163.44 210.423 163.44 210.358 163.44 210.293C163.44 210.227 163.44 210.162 163.44 210.096C163.44 210.031 163.44 209.966 163.44 209.9C163.44 209.835 163.44 209.769 163.44 209.704C163.44 209.639 163.44 209.573 163.44 209.508C163.44 209.442 163.44 209.377 163.44 209.312C163.44 209.246 163.44 209.181 163.44 209.115C163.44 209.05 163.44 208.985 163.44 208.919C163.44 208.854 163.44 208.788 163.44 208.723C163.44 208.658 163.44 208.592 163.44 208.527C163.44 208.461 163.44 208.396 163.44 208.331C163.44 208.265 163.44 208.2 163.44 208.134C163.44 208.069 163.44 208.004 163.44 207.938C163.44 207.873 163.44 207.807 163.44 207.742C163.44 207.677 163.44 207.611 163.44 207.546C163.44 207.48 163.44 207.415 163.44 207.35C163.44 207.284 163.44 207.219 163.44 207.153C163.44 207.088 163.44 207.023 163.44 206.957C163.44 206.892 163.44 206.826 163.44 206.761C163.44 206.696 163.44 206.63 163.44 206.565C163.44 206.499 163.44 206.434 163.44 206.369C163.44 206.303 163.44 206.238 163.44 206.172C163.44 206.107 163.44 206.042 163.44 205.976C163.44 205.911 163.44 205.845 163.44 205.78C163.44 205.715 163.44 205.649 163.44 205.584C163.44 205.518 163.44 205.453 163.44 205.388C163.44 205.322 163.44 205.257 163.44 205.191C163.44 205.126 163.44 205.061 163.44 204.995C163.44 204.93 163.44 204.864 163.44 204.799C163.44 204.734 163.44 204.668 163.44 204.603C163.44 204.537 163.44 204.472 163.44 204.407C163.505 202.641 163.505 202.575 163.505 202.51Z" fill="#007A8C"/>
<path d="M157.946 151.759C159.124 166.213 147.417 174.323 147.417 174.323C147.417 174.323 162.001 181.19 163.375 198.063C165.337 221.934 147.221 237.434 126.947 239.069C95.9468 241.554 83.5861 216.833 83.5861 216.833C83.5861 216.833 99.413 195.512 100.721 195.381C102.029 195.251 110.008 208.985 122.303 208.004C127.274 207.611 128.582 202.968 128.385 200.81C127.797 193.158 120.21 190.607 111.25 191.327C109.485 189.822 109.354 168.24 109.354 168.24C117.006 167.652 125.966 167.063 125.115 156.926C124.723 151.759 120.799 149.078 116.352 149.47C107.392 150.19 100.917 161.242 100.917 161.242C100.917 161.242 82.9975 148.162 83.3245 144.108C83.6515 140.249 93.9848 120.694 116.025 118.928C138.326 117.293 156.05 128.215 157.946 151.759" fill="#00D1F0"/>
<path d="M157.946 151.759C159.124 166.213 147.417 174.323 147.417 174.323C147.417 174.323 162.001 181.19 163.375 198.063C165.337 221.934 147.221 237.434 126.947 239.069C95.9468 241.554 83.5861 216.833 83.5861 216.833C83.5861 216.833 99.413 195.512 100.721 195.381C102.029 195.251 110.008 208.985 122.303 208.004C127.274 207.611 128.582 202.968 128.385 200.81C127.797 193.158 120.21 190.607 111.25 191.327C109.485 189.822 109.354 168.24 109.354 168.24C117.006 167.652 125.966 167.063 125.115 156.926C124.723 151.759 120.799 149.078 116.352 149.47C107.392 150.19 100.917 161.242 100.917 161.242C100.917 161.242 82.9975 148.162 83.3245 144.108C83.6515 140.249 93.9848 120.694 116.025 118.928C138.326 117.293 156.05 128.215 157.946 151.759" fill="url(#paint2_radial)" fill-opacity="0.4"/>
</g>
<defs>
<linearGradient id="paint0_linear" x1="49.0379" y1="61.5947" x2="49.8336" y2="123.88" gradientUnits="userSpaceOnUse">
<stop offset="0.000976562" stop-color="#999999"/>
<stop offset="1" stop-color="#B2B2B2"/>
</linearGradient>
<radialGradient id="paint1_radial" cx="0" cy="0" r="1" gradientUnits="userSpaceOnUse" gradientTransform="translate(206.203 95.936) rotate(87.8354) scale(105.285 76.8034)">
<stop stop-color="white"/>
<stop offset="0.173309" stop-color="white"/>
<stop offset="0.689818" stop-color="white" stop-opacity="0.01"/>
<stop offset="1" stop-color="white" stop-opacity="0.01"/>
</radialGradient>
<radialGradient id="paint2_radial" cx="0" cy="0" r="1" gradientUnits="userSpaceOnUse" gradientTransform="translate(119.763 103.03) rotate(88.022) scale(105.95 70.6361)">
<stop stop-color="white"/>
<stop offset="0.173309" stop-color="white"/>
<stop offset="0.689818" stop-color="white" stop-opacity="0.01"/>
<stop offset="1" stop-color="white" stop-opacity="0.01"/>
</radialGradient>
</defs>
</svg>